{
  "accessors": [
    {
      "bufferView": 2,
      "componentType": 5126,
      "count": 47053,
      "max": [
        0.22643999755382538,
        0.22927600145339966,
        0.5062249898910522
      ],
      "min": [
        -0.27056100964546204,
        -0.23978100717067719,
        -0.45572298765182495
      ],
      "type": "VEC3"
    },
    {
      "bufferView": 2,
      "byteOffset": 564636,
      "componentType": 5126,
      "count": 47053,
      "max": [
        0.9999942183494568,
        0.999904990196228,
        0.9987916350364685
      ],
      "min": [
        -0.9999962449073792,
        -0.9999901056289673,
        -0.999725878238678
      ],
      "type": "VEC3"
    },
    {
      "bufferView": 1,
      "componentType": 5126,
      "count": 47053,
      "max": [
        0.9999610185623169,
        0.9999880194664001
      ],
      "min": [
        2.5999999706982635e-05,
        0.008502000011503696
      ],
      "type": "VEC2"
    },
    {
      "bufferView": 1,
      "byteOffset": 376424,
      "componentType": 5126,
      "count": 47053,
      "max": [
        0.9999610185623169,
        0.9999880194664001
      ],
      "min": [
        2.5999999706982635e-05,
        0.008502000011503696
      ],
      "type": "VEC2"
    },
    {
      "bufferView": 0,
      "componentType": 5125,
      "count": 264159,
      "type": "SCALAR"
    }
  ],
  "asset": {
    "extras": {
      "author": "CUPHAT (https://sketchfab.com/CUPHAT)",
      "license": "CC-BY-NC-ND-4.0 (http://creativecommons.org/licenses/by-nc-nd/4.0/)",
      "source": "https://sketchfab.com/3d-models/cuphat047w-leather-leggings-1-ca255aad11fb4e6c980404252f49e8c0",
      "title": "Cuphat047w - Leather Leggings 1"
    },
    "generator": "Sketchfab-15.33.0",
    "version": "2.0"
  },
  "bufferViews": [
    {
      "buffer": 0,
      "byteLength": 1056636,
      "name": "floatBufferViews",
      "target": 34963
    },
    {
      "buffer": 0,
      "byteLength": 752848,
      "byteOffset": 1056636,
      "byteStride": 8,
      "name": "floatBufferViews",
      "target": 34962
    },
    {
      "buffer": 0,
      "byteLength": 1129272,
      "byteOffset": 1809484,
      "byteStride": 12,
      "name": "floatBufferViews",
      "target": 34962
    }
  ],
  "buffers": [
    {
      "byteLength": 2938756,
      "uri": "scene.bin"
    }
  ],
  "extensionsRequired": [
    "KHR_materials_pbrSpecularGlossiness"
  ],
  "extensionsUsed": [
    "KHR_materials_pbrSpecularGlossiness"
  ],
  "images": [
    {
      "uri": "textures/textured_0_diffuse.jpeg"
    }
  ],
  "materials": [
    {
      "doubleSided": true,
      "extensions": {
        "KHR_materials_pbrSpecularGlossiness": {
          "diffuseFactor": [
            1.0,
            1.0,
            1.0,
            1.0
          ],
          "diffuseTexture": {
            "index": 0
          },
          "glossinessFactor": 0.0,
          "specularFactor": [
            0.0,
            0.0,
            0.0
          ]
        }
      },
      "name": "textured_0"
    }
  ],
  "meshes": [
    {
      "name": "default_textured_0_0",
      "primitives": [
        {
          "attributes": {
            "NORMAL": 1,
            "POSITION": 0,
            "TEXCOORD_0": 2,
            "TEXCOORD_1": 3
          },
          "indices": 4,
          "material": 0,
          "mode": 4
        }
      ]
    }
  ],
  "nodes": [
    {
      "children": [
        1
      ],
      "matrix": [
        1.0,
        0.0,
        0.0,
        0.0,
        0.0,
        2.220446049250313e-16,
        -1.0,
        0.0,
        0.0,
        1.0,
        2.220446049250313e-16,
        0.0,
        0.0,
        0.0,
        0.0,
        1.0
      ],
      "name": "Sketchfab_model"
    },
    {
      "children": [
        2
      ],
      "matrix": [
        0.02539999969303608,
        0.0,
        0.0,
        0.0,
        0.0,
        0.0,
        0.02539999969303608,
        0.0,
        0.0,
        -0.02539999969303608,
        0.0,
        0.0,
        0.0,
        0.0,
        0.0,
        1.0
      ],
      "name": "76dfbfdf7b6440039d0ab89278332824.fbx"
    },
    {
      "children": [
        3
      ],
      "name": "RootNode"
    },
    {
      "children": [
        4
      ],
      "matrix": [
        1.0,
        0.0,
        0.0,
        0.0,
        0.0,
        2.220446049250313e-16,
        -1.0,
        0.0,
        0.0,
        1.0,
        2.220446049250313e-16,
        0.0,
        0.0,
        0.0,
        0.0,
        1.0
      ],
      "name": "default"
    },
    {
      "mesh": 0,
      "name": "default_textured_0_0"
    }
  ],
  "samplers": [
    {
      "magFilter": 9729,
      "minFilter": 9987,
      "wrapS": 10497,
      "wrapT": 10497
    }
  ],
  "scene": 0,
  "scenes": [
    {
      "name": "Sketchfab_Scene",
      "nodes": [
        0
      ]
    }
  ],
  "textures": [
    {
      "sampler": 0,
      "source": 0
    }
  ]
}
